<svg width="360" height="42" fill="none" xmlns="http://www.w3.org/2000/svg"><path d="M90.621 21c0 11.542-7.492 21-21.548 21-12.72 0-21.696-7.82-21.696-21 0-11.598 7.195-21 21.696-21 13.982 0 21.548 9.458 21.548 21zm99.101 0c0 11.542-7.493 21-21.548 21-12.721 0-21.696-7.82-21.696-21 0-11.598 7.194-21 21.696-21 13.981 0 21.548 9.458 21.548 21zm122.123 0c0 11.542-7.491 21-21.547 21-12.722 0-21.696-7.82-21.696-21 0-11.598 7.194-21 21.696-21 13.981 0 21.547 9.458 21.547 21zM13.447 39.49c-.466.696-1.478 1.315-2.335 1.315H.917c-.586 0-.917-.255-.917-.638 0-.177.07-.38.217-.6l12.84-18.323c.234-.348.351-.812.351-1.276 0-.464-.117-.927-.35-1.275L1.618 2.456c-.147-.219-.218-.423-.218-.599 0-.384.331-.638.918-.638h10.818c.856 0 1.868.619 2.335 1.392l4.125 7.5c.388.773 1.089.773 1.478 0l4.124-7.5c.39-.773 1.48-1.392 2.335-1.392H37.65c.587 0 .917.254.917.663 0 .188-.069.408-.216.652L27.61 18.15c-.233.348-.35.812-.35 1.276 0 .464.117.928.35 1.276l12.841 18.865c.148.219.217.43.217.617 0 .407-.331.697-.917.697H29.168c-.857 0-1.868-.619-2.335-1.314l-5.682-9.974c-.388-.773-1.167-.773-1.555 0l-6.149 9.896zM103.49 2.766c0-.85.7-1.547 1.557-1.547h15.798c2.801 0 7.471.928 9.573 2.706 3.368 2.688 5.014 6.6 5.014 10.505 0 3.935-1.672 7.864-4.937 10.525-2.1 1.856-5.292 2.784-9.572 2.784h-4.047c-.856 0-1.557.695-1.557 1.546v9.973c0 .85-.7 1.547-1.556 1.547h-8.716a1.556 1.556 0 01-1.557-1.547V2.766zm100.549-1.547h8.639c.856 0 1.556.696 1.556 1.547v27.06c0 .85.701 1.546 1.557 1.546h5.915c.856 0 1.556-.696 1.556-1.546V2.766c0-.85.701-1.547 1.556-1.547h8.639c.856 0 1.557.696 1.557 1.547v27.06c0 .85.7 1.546 1.556 1.546h5.914c.857 0 1.557-.696 1.557-1.546V2.766c0-.85.701-1.547 1.557-1.547h8.638c.857 0 1.557.696 1.557 1.547v36.57c0 .85-.7 1.546-1.557 1.546h-50.119a1.556 1.556 0 01-1.556-1.546V2.766c0-.862.591-1.547 1.478-1.547zm121.407 0h32.997c.857 0 1.557.696 1.557 1.547v36.57c0 .85-.7 1.546-1.557 1.546h-8.638a1.556 1.556 0 01-1.557-1.546v-27.06c0-.851-.7-1.547-1.556-1.547h-9.573c-.855 0-1.556.696-1.556 1.546v27.06c0 1.072-.923 1.547-1.738 1.547h-8.535a1.557 1.557 0 01-1.557-1.546V2.766c0-.93.824-1.547 1.713-1.547zM69 32.43c5.28 0 9.559-3.72 9.559-11.42 0-7.7-4.768-11.42-9.559-11.42-4.791 0-9.743 3.414-9.743 11.42S64.47 32.428 69 32.428zm99.101 0c5.279 0 9.558-3.72 9.558-11.42 0-7.7-4.767-11.42-9.558-11.42-4.792 0-9.744 3.414-9.744 11.42s5.214 11.42 9.744 11.42zm122.123 0c5.28 0 9.559-3.72 9.559-11.42 0-7.7-4.767-11.42-9.559-11.42-4.791 0-9.744 3.414-9.744 11.42s5.215 11.42 9.744 11.42zM115.319 17.535c0 .85.545 1.468 1.245 1.468.702 0 2.076-.082 2.88-.155.804-.072 1.677-.426 2.024-.618 1.344-.747 1.943-2.395 1.943-3.96 0-1.106-.299-2.17-.847-2.844-.992-1.22-2.731-1.546-4.598-1.546h-1.09c-.856 0-1.557.696-1.557 1.546v6.109z" fill="#000" fill-rule="evenodd"/></svg>