<svg width="360.000000" height="42.000000" viewBox="0 0 360 42" fill="none" xmlns="http://www.w3.org/2000/svg" xmlns:xlink="http://www.w3.org/1999/xlink">
	<desc>
			Created with Pixso.
	</desc>
	<defs/>
	<path d="M90.6211 21.0002C90.6211 32.5425 83.1289 42 69.0732 42C56.3525 42 47.377 34.1807 47.377 21.0002C47.377 9.40186 54.5723 0 69.0732 0C83.0547 0 90.6211 9.45752 90.6211 21.0002ZM189.722 21.0002C189.722 32.5425 182.229 42 168.174 42C155.453 42 146.478 34.1807 146.478 21.0002C146.478 9.40186 153.672 0 168.174 0C182.155 0 189.722 9.45752 189.722 21.0002ZM311.845 21.0002C311.845 32.5425 304.354 42 290.298 42C277.576 42 268.602 34.1807 268.602 21.0002C268.602 9.40186 275.796 0 290.298 0C304.279 0 311.845 9.45752 311.845 21.0002ZM13.4473 39.4902C12.9805 40.186 11.9688 40.8047 11.1123 40.8047L0.916992 40.8047C0.331055 40.8047 0 40.5505 0 40.1667C0 39.9905 0.0703125 39.7866 0.216797 39.5676L13.0576 21.2439C13.291 20.896 13.4082 20.4321 13.4082 19.9683C13.4082 19.5044 13.291 19.0405 13.0576 18.6926L1.61816 2.4563C1.4707 2.2373 1.40039 2.03345 1.40039 1.85718C1.40039 1.47339 1.73145 1.21948 2.31836 1.21948L13.1357 1.21948C13.9922 1.21948 15.0039 1.83789 15.4707 2.61108L19.5957 10.1106C19.9844 10.8838 20.6846 10.8838 21.0742 10.1106L25.1982 2.61108C25.5879 1.83789 26.6777 1.21948 27.5332 1.21948L37.6504 1.21948C38.2373 1.21948 38.5674 1.47339 38.5674 1.88208C38.5674 2.06982 38.498 2.29028 38.3506 2.53369L27.6113 18.1514C27.3779 18.4993 27.2607 18.9631 27.2607 19.427C27.2607 19.8909 27.3779 20.3547 27.6113 20.7026L40.4521 39.5676C40.5996 39.7866 40.6689 39.998 40.6689 40.1851C40.6689 40.5916 40.3379 40.8818 39.752 40.8818L29.168 40.8818C28.3115 40.8818 27.2998 40.2634 26.833 39.5676L21.1514 29.594C20.7627 28.8208 19.9844 28.8208 19.5957 29.594L13.4473 39.4902ZM103.49 2.76562C103.49 1.91528 104.19 1.21948 105.047 1.21948L120.845 1.21948C123.646 1.21948 128.316 2.14722 130.418 3.92529C133.786 6.61279 135.432 10.5247 135.432 14.4297C135.432 18.365 133.76 22.2935 130.495 24.9551C128.395 26.8105 125.203 27.7385 120.923 27.7385L116.876 27.7385C116.02 27.7385 115.319 28.4343 115.319 29.2847L115.319 39.2583C115.319 40.1089 114.619 40.8047 113.763 40.8047L105.047 40.8047C104.19 40.8047 103.49 40.1089 103.49 39.2583L103.49 2.76562ZM204.039 1.21948L212.678 1.21948C213.534 1.21948 214.234 1.91528 214.234 2.76562L214.234 29.8259C214.234 30.6763 214.935 31.3723 215.791 31.3723L221.706 31.3723C222.562 31.3723 223.262 30.6763 223.262 29.8259L223.262 2.76562C223.262 1.91528 223.963 1.21948 224.818 1.21948L233.457 1.21948C234.313 1.21948 235.014 1.91528 235.014 2.76562L235.014 29.8259C235.014 30.6763 235.714 31.3723 236.57 31.3723L242.484 31.3723C243.341 31.3723 244.041 30.6763 244.041 29.8259L244.041 2.76562C244.041 1.91528 244.742 1.21948 245.598 1.21948L254.236 1.21948C255.093 1.21948 255.793 1.91528 255.793 2.76562L255.793 39.3357C255.793 40.186 255.093 40.8818 254.236 40.8818L204.117 40.8818C203.262 40.8818 202.561 40.186 202.561 39.3357L202.561 2.76562C202.561 1.90381 203.152 1.21948 204.039 1.21948ZM325.446 1.21948L358.443 1.21948C359.3 1.21948 360 1.91528 360 2.76562L360 39.3357C360 40.186 359.3 40.8818 358.443 40.8818L349.805 40.8818C348.949 40.8818 348.248 40.186 348.248 39.3357L348.248 12.2754C348.248 11.425 347.548 10.729 346.692 10.729L337.119 10.729C336.264 10.729 335.563 11.425 335.563 12.2754L335.563 39.3357C335.563 40.4067 334.64 40.8818 333.825 40.8818L325.29 40.8818C324.435 40.8818 323.733 40.186 323.733 39.3357L323.733 2.76562C323.733 1.83691 324.557 1.21948 325.446 1.21948ZM69 32.4299C74.2793 32.4299 78.5586 28.7085 78.5586 21.0085C78.5586 13.3093 73.791 9.58813 69 9.58813C64.209 9.58813 59.2568 13.0032 59.2568 21.0085C59.2568 29.0146 64.4707 32.4299 69 32.4299ZM168.101 32.4299C173.38 32.4299 177.659 28.7085 177.659 21.0085C177.659 13.3093 172.892 9.58813 168.101 9.58813C163.309 9.58813 158.357 13.0032 158.357 21.0085C158.357 29.0146 163.571 32.4299 168.101 32.4299ZM290.224 32.4299C295.504 32.4299 299.783 28.7085 299.783 21.0085C299.783 13.3093 295.016 9.58813 290.224 9.58813C285.433 9.58813 280.48 13.0032 280.48 21.0085C280.48 29.0146 285.695 32.4299 290.224 32.4299ZM115.319 17.5337C115.319 18.384 115.864 19.0017 116.564 19.0017C117.266 19.0017 118.64 18.9199 119.444 18.8472C120.248 18.7747 121.121 18.4211 121.468 18.2288C122.812 17.4824 123.411 15.834 123.411 14.2693C123.411 13.1631 123.112 12.0986 122.564 11.425C121.572 10.2056 119.833 9.87866 117.966 9.87866L116.876 9.87866C116.02 9.87866 115.319 10.5745 115.319 11.425L115.319 17.5337Z" fill="#000000" fill-opacity="1.000000" fill-rule="evenodd"/>
</svg>
